<svg xmlns="http://www.w3.org/2000/svg" width="1024" height="1024" fill="none" viewBox="0 0 1024 1024"><path fill="#EF5388" d="M1024 0H0v1024h1024z"/><path fill="#fff" d="M767.715 871.486c-39.126-3.259-70.95-31.947-80.285-71.362a93.6 93.6 0 0 1-1.904-36.502 93.6 93.6 0 0 1 36.679-61.595 93.58 93.58 0 0 1 69.498-17.57 93.59 93.59 0 0 1 77.201 69.781c.236.932.475 1.865.68 2.8a93.6 93.6 0 0 1-11.756 70.645 93.56 93.56 0 0 1-58.25 41.646c-.89.211-1.802.398-2.692.581a96.4 96.4 0 0 1-15.751 2.09c-4.513-.028-10.363-.211-13.42-.514M390.772 768.78a306.74 306.74 0 0 1-142.19-77.898 313 313 0 0 1-96.506-219.227 313 313 0 0 1 86.746-223.269 463 463 0 0 1 4.39-4.497A313.22 313.22 0 0 1 464.68 152a313.2 313.2 0 0 1 119.891 23.792 313.2 313.2 0 0 1 101.664 67.875 257 257 0 0 1 5.663 5.808 312.87 312.87 0 0 1 58.363 343.694c-7.899 17.631-19.706 38.483-23.988 42.494-3.338-2.341-41.497-40.455-44.193-44.19.501-1.038.994-2.236 1.61-3.351a250 250 0 0 0 27.136-71.837 256 256 0 0 0 4.737-34.012c.633-7.837.856-15.7.671-23.56a251.82 251.82 0 0 0-60.697-158.016 251.73 251.73 0 0 0-147.012-83.863 193 193 0 0 0-31.217-3.339c-3.759-.052-7.518-.605-11.277-.58a251.8 251.8 0 0 0-170.687 66.063 251.88 251.88 0 0 0-80.882 164.211 236.5 236.5 0 0 0-.514 35.826 249.27 249.27 0 0 0 42.274 125.532 243.5 243.5 0 0 0 27.404 33.997 8.54 8.54 0 0 0 3.97 3.086c1.699-.418 2.775-1.956 4.023-3.192a8311 8311 0 0 0 24.708-24.624 95152 95152 0 0 0 55.929-55.942c1.366-1.366 2.668-2.827 3.823-4.06a9.17 9.17 0 0 0-3.23-4.681 124.3 124.3 0 0 1-27.341-47.787 122.9 122.9 0 0 1-5.365-43.15 124.8 124.8 0 0 1 18.233-58.749 124.74 124.74 0 0 1 44.085-42.892 118.3 118.3 0 0 1 43.771-15.291 124.3 124.3 0 0 1 54.809 3.774 124.32 124.32 0 0 1 79.341 72.05 124.4 124.4 0 0 1 9.035 54.204 122.3 122.3 0 0 1-19.128 60.134 105.8 105.8 0 0 1-14.958 18.799 6237 6237 0 0 0-42.719 42.741 11.03 11.03 0 0 0-3.705 4.68q.62.985 1.365 1.88c1.105 1.208 2.286 2.354 3.446 3.51l118.457 118.484a17.1 17.1 0 0 1 3.799 4.328c-8.11 8.74-52.446 29.986-79.341 38.097a311.7 311.7 0 0 1-165.87 4.827z"/></svg>